<svg xmlns="http://www.w3.org/2000/svg" xmlns:svg="http://www.w3.org/2000/svg" id="svg2" width="451.2" height="331.2" version="1.0" viewBox="0 0 4.7 3.45" xml:space="preserve"><defs id="defs4"><style id="style6" type="text/css"/></defs><g id="Layer_x0020_1"><g id="_57704480"><path style="fill:none;stroke:#000;stroke-width:.0972205" id="_40125992" d="M 4.48098,3.3672 C 4.5461847,3.3672 4.599067,3.314322 4.599067,3.249098 L 4.5990709,2.499196 C 4.5990709,2.4339716 4.5461811,2.38109 4.4809799,2.38109 L 0.24493994,2.38109 C 0.17973524,2.38109 0.12684894,2.4339719 0.12684894,2.499196 L 0.12684894,3.249098 C 0.12684894,3.3143185 0.17973474,3.3672 0.24493994,3.3672 L 4.4809799,3.3672 L 4.48098,3.3672 z"/><path style="fill:#000" id="_58915192" d="M 0.687134,2.82235 L 0.687134,2.942756 C 0.687134,3.0069332 0.67735447,3.048496 0.6480198,3.076 C 0.6223505,3.1010591 0.5844529,3.1047283 0.5331138,3.1047283 L 0.2825198,3.1047244 L 0.2825198,2.6603814 L 0.5331138,2.6603814 C 0.5844524,2.6603814 0.6223461,2.6640507 0.6480198,2.6891097 C 0.6773544,2.7166136 0.687134,2.7581766 0.687134,2.8223497 L 0.687134,2.82235 z M 0.323473,3.055216 L 0.560008,3.055216 C 0.6217363,3.055216 0.6443505,3.027716 0.6443505,2.947649 L 0.6443505,2.818074 C 0.6443505,2.734948 0.6254056,2.709889 0.560008,2.709889 L 0.323473,2.709889 L 0.323473,3.055216 z"/><polygon style="fill:#000" id="_59059024" points=".735 2.66 .778 2.66 .778 3.105 .735 3.105 .735 2.66"/><path style="fill:#000" id="_59169752" d="M 1.19471,2.92993 L 1.023576,2.92993 L 1.023576,2.8804221 L 1.236273,2.8804221 L 1.236273,2.9525441 C 1.236273,3.010611 1.236273,3.052174 1.2093793,3.0821231 C 1.1873754,3.1071782 1.1500919,3.1102373 1.0938633,3.1102373 L 0.9746783,3.1102334 C 0.9221153,3.1102334 0.8860563,3.106568 0.8609933,3.0784539 C 0.8371587,3.0515602 0.829824,3.0100011 0.829824,2.9470479 L 0.829824,2.8260279 C 0.829824,2.7575712 0.83715865,2.7129569 0.8609933,2.6860629 C 0.8848358,2.6591692 0.9208949,2.6548897 0.9740683,2.6548897 L 1.0938633,2.6548897 C 1.2020443,2.6548897 1.2387173,2.6817834 1.2326033,2.8040237 L 1.1947096,2.8040237 C 1.195934,2.7276261 1.1751505,2.7037877 1.1164773,2.7037877 L 0.9575643,2.7037837 C 0.9215052,2.7037837 0.8995013,2.7105121 0.8860564,2.7361813 C 0.873832,2.7594057 0.873832,2.7893545 0.873832,2.8309175 L 0.873832,2.9317605 C 0.873832,2.9733235 0.873832,3.0032762 0.8860564,3.0265007 C 0.8995013,3.0515598 0.9215052,3.0588944 0.9575643,3.0588944 L 1.1152573,3.0588944 C 1.1824896,3.0588944 1.1947101,3.0362802 1.1947101,2.9525444 L 1.1947101,2.9299302 L 1.19471,2.92993 z"/><polygon style="fill:#000" id="_58644048" points="1.286 2.66 1.329 2.66 1.329 3.105 1.286 3.105 1.286 2.66"/><polygon style="fill:#000" id="_59126952" points="1.523 2.71 1.358 2.71 1.358 2.66 1.729 2.66 1.729 2.71 1.566 2.71 1.566 3.105 1.523 3.105 1.523 2.71"/><path style="fill:#000" id="_59170696" d="M 1.96378,2.66039 L 2.157532,3.104733 L 2.1135241,3.104733 L 2.0701304,3.0069417 L 1.8048704,3.0069417 L 1.7626972,3.104733 L 1.715024,3.104733 L 1.908772,2.66039 L 1.9637799,2.66039 L 1.96378,2.66039 z M 1.9368863,2.7043979 L 1.8250403,2.9598779 L 2.0499613,2.9598779 L 1.9368863,2.7043979 z"/><polygon style="fill:#000" id="_59126160" points="2.214 2.66 2.214 3.056 2.473 3.056 2.473 3.105 2.173 3.105 2.173 2.66 2.214 2.66"/><polygon style="fill:#000" id="_58640296" points="2.699 2.66 2.863 3.058 3.028 2.66 3.075 2.66 2.89 3.105 2.837 3.105 2.652 2.66 2.699 2.66"/><polygon style="fill:#000" id="_59105992" points="3.092 2.66 3.135 2.66 3.135 3.105 3.092 3.105 3.092 2.66"/><path style="fill:#000" id="_59105488" d="M 3.59824,2.82235 L 3.59824,2.942756 C 3.59824,3.0069332 3.5884565,3.048496 3.5591219,3.076 C 3.5334526,3.1010591 3.495555,3.1047283 3.4442159,3.1047283 L 3.1936219,3.1047244 L 3.1936219,2.6603814 L 3.4442159,2.6603814 C 3.4955584,2.6603814 3.5334521,2.6640507 3.5591219,2.6891097 C 3.5884605,2.7166136 3.5982361,2.7581766 3.59824,2.8223497 L 3.59824,2.82235 z M 3.234579,3.055216 L 3.47111,3.055216 C 3.5328423,3.055216 3.5554525,3.027716 3.5554525,2.947649 L 3.5554564,2.818074 C 3.5554564,2.734948 3.5365076,2.709889 3.4711099,2.709889 L 3.2345789,2.709889 L 3.2345789,3.055216 L 3.234579,3.055216 z"/><polygon style="fill:#000" id="_58610512" points="3.974 2.66 3.974 2.71 3.686 2.71 3.686 2.849 3.962 2.849 3.962 2.899 3.686 2.899 3.686 3.055 3.974 3.055 3.974 3.105 3.646 3.105 3.646 2.66 3.974 2.66"/><path style="fill:#000" id="_57345256" d="M 4.00381,2.94704 L 4.00381,2.826024 C 4.00381,2.7575673 4.0117549,2.712953 4.0368139,2.686059 C 4.0624871,2.6591653 4.1009911,2.6548858 4.1578339,2.6548858 L 4.2690739,2.6548858 C 4.3253022,2.6548858 4.3644164,2.6591653 4.3894759,2.686059 C 4.4133145,2.7111181 4.423094,2.7545157 4.423094,2.820524 L 4.423094,2.944595 C 4.423094,3.0099926 4.4139247,3.05339 4.3894759,3.07906 C 4.3638066,3.1065639 4.3253027,3.1102332 4.2690699,3.1102332 L 4.1578339,3.1102293 C 4.1022119,3.1102293 4.0637079,3.1065639 4.0374249,3.07906 C 4.0123698,3.0521702 4.0038107,3.0106072 4.0038107,2.94704 L 4.00381,2.94704 z M 4.0606525,2.736178 C 4.0478179,2.7594024 4.0478139,2.7893512 4.0478139,2.8309142 L 4.0478178,2.9317572 C 4.0478178,2.9733202 4.0478139,3.0032729 4.0606524,3.0264974 C 4.0753217,3.0521706 4.0997666,3.0588911 4.1376642,3.0588911 L 4.2886292,3.0588911 C 4.3265268,3.0588911 4.3509717,3.0521706 4.365641,3.0264974 C 4.3790898,3.0032691 4.3778615,2.9733242 4.3778615,2.9317612 L 4.3778655,2.8309152 C 4.3778655,2.7893522 4.3790859,2.7594034 4.3656411,2.736179 C 4.3509757,2.7105058 4.326523,2.7037853 4.2886293,2.7037853 L 4.1376643,2.7037814 C 4.0997706,2.7037814 4.0753218,2.7105097 4.0606525,2.736179 L 4.0606525,2.736178 z"/><path style="fill:#000" id="_59920344" d="M 4.14101,0.367669 C 4.1406714,0.3804564 4.140258,0.3909603 4.1398328,0.3947241 C 4.1365572,0.423543 4.1398328,0.437165 4.0567383,0.437165 C 3.9736477,0.437165 3.9769273,0.423543 3.9736477,0.3947241 C 3.9725847,0.38534221 3.9715965,0.3340312 3.9716989,0.3100233 C 3.9717973,0.2860154 3.9725808,0.2347044 3.9736477,0.2253264 C 3.9769273,0.1965036 3.9736477,0.1828815 4.0567383,0.1828815 C 4.1398328,0.1828815 4.1365533,0.1965075 4.1398328,0.2253264 C 4.1402777,0.2292516 4.1406753,0.2405587 4.1409942,0.2541295 L 4.2546592,0.25412556 C 4.253927,0.22836576 4.2527065,0.20684206 4.2514348,0.19562556 C 4.2448837,0.13798776 4.2675883,0.082798563 4.0568678,0.082798563 C 3.8461508,0.082794626 3.8688558,0.13798756 3.8623008,0.19562556 C 3.8601709,0.21438536 3.8581945,0.26200746 3.8583993,0.31002356 C 3.858604,0.35803926 3.8601709,0.40566136 3.8623008,0.42442556 C 3.868856,0.48205946 3.8461512,0.53725256 4.0568678,0.53725256 C 4.2675918,0.53724863 4.2448838,0.48205966 4.2514348,0.42442556 C 4.2526829,0.41346096 4.2537341,0.39265386 4.2544348,0.36767356 L 4.1410098,0.36766963 L 4.14101,0.367669 z"/><polygon style="fill:#000" id="_58658680" points="2.793 .094 2.682 .418 2.571 .094 2.405 .093 2.405 .528 2.516 .528 2.516 .204 2.627 .528 2.738 .528 2.848 .204 2.848 .528 2.959 .528 2.959 .093 2.793 .094"/><polygon style="fill:#000" id="_58659280" points="4.28 .093 4.598 .093 4.598 .204 4.494 .204 4.494 .528 4.383 .528 4.383 .204 4.28 .204 4.28 .093"/><polygon style="fill:#000" id="_59789168" points="3.425 .528 3.552 .093 3.717 .093 3.845 .528 3.734 .528 3.708 .438 3.562 .438 3.583 .368 3.687 .368 3.635 .19 3.536 .528 3.425 .528"/><path style="fill:#000" id="_59224032" d="M 2.13841,0.182882 C 2.2215045,0.182882 2.218225,0.196508 2.2215045,0.2253269 C 2.2225714,0.23470485 2.223351,0.2860159 2.2234533,0.3100238 C 2.2235557,0.3340317 2.2225675,0.3853427 2.2215045,0.3947246 C 2.218225,0.4235435 2.2215045,0.4371655 2.13841,0.4371655 C 2.0553234,0.4371655 2.058595,0.4235435 2.0553194,0.3947246 C 2.0542564,0.38534271 2.0532682,0.3340317 2.0533706,0.3100238 C 2.0534729,0.2860159 2.0542525,0.2347049 2.0553194,0.2253269 C 2.058595,0.1965041 2.0553194,0.182882 2.13841,0.182882 L 2.1385399,0.082795 C 1.9278229,0.082795 1.9505279,0.1379879 1.9439729,0.195626 C 1.941843,0.2143858 1.9398666,0.2620079 1.9400714,0.310024 C 1.9402761,0.3580397 1.941843,0.4056618 1.9439729,0.424426 C 1.950528,0.4820599 1.9278233,0.537253 2.1385399,0.537253 C 2.3492599,0.53724906 2.3265559,0.4820601 2.3331069,0.424426 C 2.3352408,0.4056622 2.3368077,0.3580402 2.3370085,0.310024 C 2.3372132,0.2620083 2.3352408,0.2143901 2.3331069,0.195626 C 2.3265557,0.1379882 2.3492604,0.082799 2.1385399,0.082799 L 2.13841,0.182882 L 2.13841,0.182882 z"/><path style="fill:#000" id="_58662704" d="M 1.76396,0.367669 C 1.7636214,0.3804564 1.763208,0.3909603 1.7627789,0.3947241 C 1.7595033,0.423543 1.7627789,0.437165 1.6796883,0.437165 C 1.5966017,0.437165 1.5998773,0.423543 1.5965977,0.3947241 C 1.5955347,0.38534221 1.5945465,0.3340312 1.5946489,0.3100233 C 1.5947473,0.2860154 1.5955347,0.2347044 1.5965977,0.2253264 C 1.5998772,0.1965036 1.5965977,0.1828815 1.6796883,0.1828815 C 1.7627789,0.1828815 1.7595033,0.1965075 1.7627789,0.2253264 C 1.7632277,0.2292516 1.7636214,0.2405587 1.7639403,0.2541295 L 1.8776093,0.25412556 C 1.876877,0.22836576 1.8756605,0.20684206 1.8743849,0.19562556 C 1.8678337,0.13798776 1.8905345,0.082798563 1.6798179,0.082798563 C 1.4691009,0.082794626 1.4918059,0.13798756 1.4852509,0.19562556 C 1.4831171,0.21438536 1.4811446,0.26200746 1.4813493,0.31002356 C 1.4815541,0.35803926 1.4831171,0.40566136 1.4852509,0.42442556 C 1.491806,0.48205946 1.4691013,0.53725256 1.6798179,0.53725256 C 1.8905379,0.53724863 1.8678299,0.48205966 1.8743849,0.42442556 C 1.875629,0.41346096 1.8766802,0.39265386 1.877381,0.36767356 L 1.76396,0.36766963 L 1.76396,0.367669 z"/><path style="fill:#000" id="_58662944" d="M 3.22919,0.428886 L 3.1618987,0.42885057 L 3.1618987,0.32964977 L 3.2291743,0.32924425 C 3.3122688,0.32924425 3.30969,0.31562225 3.3129656,0.28680335 C 3.3140365,0.27741752 3.3138121,0.28513012 3.3137097,0.26112225 C 3.3136073,0.23711435 3.3140325,0.24535845 3.3129656,0.23598055 C 3.30969,0.20716165 3.3122648,0.19353175 3.2291743,0.19353175 L 3.1618633,0.19370892 L 3.1619775,0.52791792 L 3.0508555,0.52791792 L 3.0508555,0.09345692 L 3.2291905,0.093452983 C 3.4399145,0.093452983 3.4168165,0.14879158 3.4245685,0.20627998 C 3.4254897,0.213091 3.4254897,0.24452798 3.4254897,0.26147688 C 3.4254897,0.27509498 3.4254897,0.30653198 3.4245685,0.31650048 C 3.4192496,0.37426028 3.439911,0.42889048 3.2291905,0.42888648 L 3.22919,0.428886 z"/><path style="fill:#000" id="_60117992" d="M 1.07238,2.1659 L 0.378183,2.1650929 C 0.277738,2.1650929 0.196321,2.0836638 0.196321,1.9832309 L 0.196321,0.92656091 C 0.196321,0.82611191 0.2777383,0.74469491 0.378183,0.74469491 L 0.812655,0.74420279 C 0.8648322,0.74420279 0.9071393,0.70190749 0.9071393,0.64972249 L 0.90841095,0.22723849 C 0.90841095,0.20537239 0.92613925,0.18764009 0.94800935,0.18764009 L 1.2027104,0.18764009 C 1.2245804,0.18764009 1.2423246,0.20537239 1.2423246,0.22724249 L 1.2449348,2.1264425 C 1.2449348,2.1483086 1.2272025,2.1660567 1.2053403,2.1660567 L 1.0723793,2.1658992 L 1.069147,2.2602653 L 1.242883,2.2602141 C 1.2950562,2.2602141 1.3373633,2.2179228 1.3373633,2.1657338 L 1.3373633,0.18688383 C 1.3373633,0.13471453 1.2950562,0.092419226 1.242879,0.092419226 L 0.90871801,0.092415289 C 0.85654481,0.092415289 0.81423371,0.13471449 0.81423371,0.18688769 L 0.81471009,0.61043069 C 0.81471009,0.63229679 0.79697779,0.65004489 0.77509589,0.65004489 L 0.37818289,0.64931654 C 0.22506089,0.64931654 0.10092689,0.77343454 0.10092689,0.92656054 L 0.10093083,1.9832205 C 0.10093083,2.1363265 0.22506083,2.2604605 0.37818283,2.2604605 L 1.0691478,2.2602598 L 1.0723801,2.1658937 L 1.0723801,2.1658976 L 1.07238,2.1659 z"/><path style="fill:#000" id="_60119800" d="M 0.814224,1.77696 L 0.814224,1.093346 C 0.814224,1.0360625 0.7677791,0.989618 0.710476,0.989618 C 0.6531925,0.989618 0.606748,1.0360629 0.606748,1.09335 L 0.606748,1.831271 C 0.606748,1.8885623 0.6531889,1.935019 0.710476,1.935019 C 0.7677791,1.935019 0.814224,1.8885623 0.814224,1.831275 L 0.814224,1.77696 L 0.9085232,1.7801923 L 0.9085232,1.831271 C 0.9085232,1.940637 0.8198539,2.029306 0.7104762,2.029306 C 0.6011182,2.029306 0.5124482,1.9406367 0.5124482,1.831275 L 0.5124482,1.093346 C 0.5124482,0.98398398 0.6011175,0.89531798 0.7104762,0.89531798 C 0.8198542,0.89531404 0.9085232,0.98398728 0.9085232,1.093349 L 0.9085232,1.780192 L 0.814224,1.7769597 L 0.814224,1.77696 z"/><path style="fill:#000" id="_60121136" d="M 1.73219,2.1659 L 1.602269,2.1659079 C 1.5803832,2.1659079 1.5626548,2.1481599 1.5626548,2.1262937 L 1.5642493,0.78515367 C 1.5642493,0.76327177 1.5819776,0.74554347 1.6038556,0.74554347 L 1.8585646,0.74554347 C 1.8804426,0.74554347 1.8981748,0.76327177 1.8981748,0.78515367 L 1.900789,2.1262837 C 1.900789,2.1481656 1.8830567,2.1658979 1.8611866,2.1658979 L 1.7321906,2.1659057 L 1.7321906,2.259886 L 1.8987336,2.2600593 C 1.9509226,2.2600593 1.9932139,2.217768 1.9932139,2.1655908 L 1.9932139,0.74480078 C 1.9932139,0.69263148 1.9509186,0.65032048 1.8987336,0.65032048 L 1.5645566,0.65032048 C 1.5123834,0.65032048 1.4700881,0.69263148 1.4700881,0.74480078 L 1.4698912,2.1652308 C 1.4698912,2.2174158 1.5118636,2.2597111 1.5640369,2.2597111 L 1.7321909,2.2598882 L 1.7321909,2.1659079 L 1.7321909,2.165904 L 1.73219,2.1659 z"/><path style="fill:#000" id="_60122704" d="M 2.93214,1.00943 L 2.652329,1.0090481 C 2.5662306,1.0090481 2.496408,1.078867 2.496408,1.1649691 C 2.496408,1.2510793 2.5662269,1.3208861 2.652325,1.3208861 L 3.035695,1.3219294 C 3.136128,1.3219294 3.217557,1.4033664 3.217557,1.5037994 L 3.2162735,1.9810674 C 3.2162735,2.0815164 3.1348404,2.1629334 3.0344075,2.1629334 L 2.2733795,2.1643153 C 2.2515134,2.1643153 2.2337693,2.1465712 2.2337693,2.1247051 L 2.2337693,1.9398621 C 2.2337693,1.9179802 2.2515134,1.9002519 2.2733795,1.9002519 L 2.7920445,1.898559 C 2.8781547,1.898559 2.9479735,1.8287559 2.9479735,1.742642 C 2.9479775,1.6565278 2.8781546,1.586725 2.7920405,1.586725 L 2.4165405,1.5852407 C 2.3161075,1.5852407 2.2346745,1.5038116 2.2346745,1.4033787 L 2.2346745,0.92657175 C 2.2346745,0.82612275 2.3161076,0.74470575 2.4165405,0.74470575 L 3.1219895,0.74140654 C 3.1438556,0.74140654 3.161584,0.75915454 3.161584,0.78102074 L 3.1615998,0.97007974 C 3.1615998,0.99194584 3.1438675,1.0096939 3.1219856,1.0096939 L 2.9321396,1.0094302 L 2.9289073,1.102383 L 3.1609313,1.1024538 C 3.2131006,1.1024538 3.2554116,1.0604814 3.2554116,1.0083121 L 3.255762,0.74347313 C 3.255762,0.69128413 3.2134667,0.64899283 3.1612777,0.64899283 L 2.4165417,0.64932747 C 2.2634317,0.64932747 2.1393017,0.77344547 2.1393017,0.92657147 L 2.1393017,1.4033785 C 2.1393017,1.5564845 2.2634317,1.6806185 2.4165417,1.6806185 L 2.7920457,1.6799767 C 2.8266677,1.6799767 2.8547229,1.7080318 2.8547229,1.7426421 C 2.8547229,1.7772641 2.8266678,1.8053232 2.7920418,1.8053232 L 2.2330298,1.8052091 C 2.1808526,1.8052091 2.1385613,1.8475044 2.1385613,1.8996934 L 2.1385613,2.1639964 C 2.1385613,2.2161814 2.1808526,2.2584767 2.2330259,2.2584767 L 3.0344119,2.2583074 C 3.1875219,2.2583074 3.3116479,2.1341934 3.3116479,1.9810714 L 3.3129353,1.5037954 C 3.3129353,1.3506894 3.1888053,1.2265554 3.0356953,1.2265554 L 2.6523293,1.2276499 C 2.6177191,1.2276499 2.58966,1.1995908 2.58966,1.1649688 C 2.58966,1.1303546 2.6177151,1.1022995 2.6523254,1.1022995 L 2.9289084,1.1023821 L 2.9321407,1.0094293 L 2.93214,1.00943 z"/><path style="fill:#000" id="_60125752" d="M 4.34232,1.27163 L 4.462501,1.27163 C 4.484379,1.27163 4.5021073,1.2539017 4.5021073,1.2320198 L 4.5016073,0.9265708 C 4.5016073,0.8261218 4.42019,0.7447048 4.3197413,0.7447048 L 3.7185093,0.7447048 C 3.6180643,0.7447048 3.5366273,0.8261221 3.5366273,0.9265708 L 3.5366273,1.9832308 C 3.5366273,2.0836678 3.6180604,2.1650968 3.7185053,2.1650968 L 4.3197413,2.1650968 C 4.4201903,2.1650968 4.5016073,2.0836677 4.5016073,1.9832348 L 4.5021073,1.6927978 C 4.5021073,1.6709198 4.484379,1.6531915 4.4624971,1.6531915 L 4.2356821,1.6531915 C 4.213816,1.6531915 4.1960837,1.6709198 4.1960837,1.6928017 L 4.1973593,1.8312777 C 4.1973593,1.9406437 4.1284853,2.0293127 4.0191233,2.0293127 C 3.9097493,2.0293127 3.8408953,1.9406434 3.8408953,1.8312817 L 3.8408953,1.0933527 C 3.8408953,0.9839907 3.9097496,0.8953247 4.0191233,0.8953247 C 4.1284893,0.89532076 4.1973593,0.983994 4.1973593,1.0933557 L 4.1960876,1.2320167 C 4.1960876,1.2538986 4.2138159,1.2716269 4.2356821,1.2716269 L 4.3423201,1.2716269 L 4.3390879,1.3668474 L 4.1963949,1.3668474 C 4.1442217,1.3668474 4.1019106,1.3245443 4.1019106,1.272371 L 4.1030602,1.093351 C 4.1030602,1.0360675 4.0764106,0.989623 4.0191232,0.989623 C 3.961824,0.989623 3.9351783,1.0360679 3.9351783,1.093355 L 3.9351783,1.831276 C 3.9351783,1.8885673 3.961824,1.935024 4.0191232,1.935024 C 4.0764145,1.935024 4.1030563,1.8885673 4.1030563,1.83128 L 4.1019145,1.652445 C 4.1019145,1.6002718 4.1442176,1.5579647 4.1963948,1.5579647 L 4.5026668,1.5579608 C 4.5548558,1.5579608 4.5971511,1.6002718 4.5971511,1.652449 L 4.5969858,1.983229 C 4.5969858,2.136335 4.4728638,2.260469 4.3197418,2.260469 L 3.7185098,2.260469 C 3.5653878,2.260469 3.4412538,2.136339 3.4412538,1.983233 L 3.4412538,0.92656296 C 3.4412538,0.77343696 3.5653838,0.64931896 3.7185058,0.64931896 L 4.3197418,0.64931896 C 4.4728678,0.64931896 4.5969818,0.77343696 4.5969818,0.92656296 L 4.5971511,1.272362 C 4.5971511,1.3245392 4.5548558,1.3668463 4.5026668,1.3668463 L 4.3390878,1.3668423 L 4.3423201,1.2716218 L 4.3423201,1.2716258 L 4.34232,1.27163 z"/></g></g></svg>